<svg width="94" height="31" viewBox="0 0 94 31" fill="none" xmlns="http://www.w3.org/2000/svg">
<rect width="94" height="31" fill="#141414"/>
<path d="M0.816 24C0.576 24 0.456 23.912 0.456 23.736C0.456 23.592 0.56 23.496 0.768 23.448L1.32 23.352C1.656 23.288 1.872 23.2 1.968 23.088C2.08 22.976 2.136 22.752 2.136 22.416V8.304C2.136 7.968 2.08 7.744 1.968 7.632C1.872 7.52 1.656 7.432 1.32 7.368L0.768 7.272C0.56 7.224 0.456 7.128 0.456 6.984C0.456 6.808 0.576 6.72 0.816 6.72H5.832C6.776 6.72 7.608 6.928 8.328 7.344C9.048 7.744 9.608 8.304 10.008 9.024C10.408 9.744 10.608 10.576 10.608 11.52C10.608 12.432 10.408 13.24 10.008 13.944C9.608 14.648 9.056 15.2 8.352 15.6C7.648 15.984 6.832 16.176 5.904 16.176H4.176C3.952 16.176 3.84 16.288 3.84 16.512V22.32C3.84 22.656 3.904 22.888 4.032 23.016C4.16 23.128 4.448 23.224 4.896 23.304L5.784 23.448C5.96 23.48 6.048 23.568 6.048 23.712C6.048 23.904 5.928 24 5.688 24H0.816ZM3.84 14.256C3.84 15.136 4.376 15.576 5.448 15.576C6.488 15.576 7.304 15.208 7.896 14.472C8.504 13.736 8.808 12.728 8.808 11.448C8.808 10.136 8.504 9.12 7.896 8.4C7.288 7.68 6.424 7.32 5.304 7.32C4.328 7.32 3.84 7.64 3.84 8.28V14.256ZM10.1467 24C9.90675 24 9.78675 23.92 9.78675 23.76C9.78675 23.6 9.89875 23.496 10.1227 23.448L10.4828 23.376C10.8028 23.312 11.0428 23.16 11.2028 22.92C11.3628 22.664 11.4988 22.312 11.6108 21.864L15.3308 6.864C15.3628 6.704 15.4108 6.6 15.4748 6.552C15.5548 6.504 15.6268 6.48 15.6908 6.48C15.7708 6.48 15.8428 6.504 15.9068 6.552C15.9868 6.6 16.0428 6.704 16.0748 6.864L19.8668 22.08C19.9788 22.528 20.1068 22.84 20.2508 23.016C20.3948 23.192 20.6188 23.312 20.9228 23.376L21.2828 23.448C21.5068 23.496 21.6188 23.6 21.6188 23.76C21.6188 23.92 21.4988 24 21.2588 24H17.1548C16.9308 24 16.8188 23.912 16.8188 23.736C16.8188 23.56 16.9548 23.464 17.2268 23.448L17.6828 23.4C17.9548 23.368 18.1228 23.28 18.1868 23.136C18.2668 22.992 18.2668 22.744 18.1868 22.392L17.2747 18.672C17.1788 18.256 16.9148 18.048 16.4828 18.048H13.9628C13.5468 18.048 13.2828 18.256 13.1708 18.672L12.3548 21.888C12.1148 22.8 12.3548 23.304 13.0748 23.4L13.4348 23.448C13.7068 23.496 13.8428 23.592 13.8428 23.736C13.8428 23.912 13.7308 24 13.5068 24H10.1467ZM13.8908 17.328H16.5308C16.7868 17.328 16.8908 17.192 16.8428 16.92L15.3068 10.488H15.1868L13.5788 16.92C13.5308 17.192 13.6348 17.328 13.8908 17.328ZM27.2312 24.216C26.0472 24.216 25.0072 23.848 24.1112 23.112C23.2312 22.376 22.5432 21.344 22.0472 20.016C21.5672 18.672 21.3272 17.088 21.3272 15.264C21.3272 13.504 21.5912 11.968 22.1192 10.656C22.6632 9.328 23.3832 8.304 24.2792 7.584C25.1912 6.848 26.1992 6.48 27.3032 6.48C27.9592 6.48 28.5352 6.544 29.0312 6.672C29.5272 6.784 29.9672 6.936 30.3512 7.128C30.5432 7.24 30.6392 7.408 30.6392 7.632L30.7112 11.28C30.7112 11.552 30.6152 11.688 30.4232 11.688C30.2472 11.688 30.1352 11.584 30.0872 11.376L29.8472 10.488C29.5112 9.24 29.1192 8.376 28.6712 7.896C28.2392 7.416 27.7192 7.176 27.1112 7.176C25.9912 7.176 25.0552 7.872 24.3032 9.264C23.5672 10.64 23.1992 12.64 23.1992 15.264C23.1992 17.056 23.3832 18.568 23.7512 19.8C24.1352 21.032 24.6232 21.96 25.2152 22.584C25.8232 23.208 26.4632 23.52 27.1352 23.52C27.8552 23.52 28.4312 23.296 28.8632 22.848C29.3112 22.4 29.6872 21.536 29.9912 20.256L30.2792 19.08C30.3272 18.84 30.4552 18.736 30.6632 18.768C30.8392 18.8 30.9272 18.936 30.9272 19.176L30.8312 23.064C30.8312 23.288 30.7272 23.456 30.5192 23.568C30.1352 23.76 29.6792 23.912 29.1512 24.024C28.6392 24.152 27.9992 24.216 27.2312 24.216ZM34.7304 24C34.4904 24 34.3704 23.912 34.3704 23.736C34.3704 23.56 34.4744 23.464 34.6824 23.448L35.7624 23.28C36.0824 23.232 36.2984 23.152 36.4104 23.04C36.5224 22.912 36.5784 22.68 36.5784 22.344V7.944C36.5784 7.72 36.5304 7.56 36.4344 7.464C36.3384 7.368 36.1384 7.32 35.8344 7.32C35.2424 7.32 34.6584 7.576 34.0824 8.088C33.5064 8.6 33.1304 9.424 32.9544 10.56L32.8344 11.352C32.8024 11.56 32.6904 11.664 32.4984 11.664C32.2584 11.664 32.1544 11.528 32.1864 11.256L32.4024 6.912C32.4344 6.544 32.5784 6.36 32.8344 6.36C32.9464 6.36 33.0504 6.392 33.1464 6.456C33.2424 6.504 33.4024 6.56 33.6264 6.624C33.8664 6.688 34.2424 6.72 34.7544 6.72H40.1064C40.6184 6.72 40.9864 6.688 41.2104 6.624C41.4504 6.56 41.6184 6.504 41.7144 6.456C41.8264 6.392 41.9304 6.36 42.0264 6.36C42.2824 6.36 42.4264 6.544 42.4584 6.912L42.6744 11.256C42.7064 11.528 42.6024 11.664 42.3624 11.664C42.1704 11.664 42.0584 11.56 42.0264 11.352L41.9064 10.56C41.7464 9.424 41.3784 8.6 40.8024 8.088C40.2264 7.576 39.6344 7.32 39.0264 7.32C38.7224 7.32 38.5224 7.368 38.4264 7.464C38.3304 7.56 38.2824 7.72 38.2824 7.944V22.344C38.2824 22.68 38.3384 22.912 38.4504 23.04C38.5784 23.152 38.7944 23.232 39.0984 23.28L40.1784 23.448C40.3864 23.464 40.4904 23.56 40.4904 23.736C40.4904 23.912 40.3704 24 40.1304 24H34.7304ZM49.5609 24.216C48.6969 24.216 47.9289 24.016 47.2569 23.616C46.6009 23.2 46.0889 22.632 45.7209 21.912C45.3529 21.176 45.1689 20.336 45.1689 19.392V8.304C45.1689 7.968 45.1129 7.744 45.0009 7.632C44.9049 7.52 44.6889 7.432 44.3529 7.368L43.8009 7.272C43.5929 7.224 43.4889 7.128 43.4889 6.984C43.4889 6.808 43.6089 6.72 43.8489 6.72H48.2409C48.4809 6.72 48.6009 6.816 48.6009 7.008C48.6009 7.152 48.5129 7.24 48.3369 7.272L47.6889 7.368C47.3689 7.416 47.1529 7.504 47.0409 7.632C46.9289 7.76 46.8729 7.992 46.8729 8.328V19.416C46.8729 20.632 47.1449 21.576 47.6889 22.248C48.2329 22.92 48.9929 23.256 49.9689 23.256C50.9609 23.256 51.7289 22.92 52.2729 22.248C52.8169 21.576 53.0889 20.632 53.0889 19.416V8.808C53.0889 7.944 52.8169 7.464 52.2729 7.368L51.6249 7.272C51.4489 7.24 51.3609 7.152 51.3609 7.008C51.3609 6.816 51.4809 6.72 51.7209 6.72H55.1769C55.4169 6.72 55.5369 6.808 55.5369 6.984C55.5369 7.128 55.4329 7.224 55.2249 7.272L54.6729 7.368C54.1289 7.464 53.8569 7.936 53.8569 8.784V19.392C53.8569 20.848 53.4649 22.016 52.6809 22.896C51.8969 23.776 50.8569 24.216 49.5609 24.216ZM63.3881 23.76C63.3241 23.76 63.2521 23.736 63.1721 23.688C63.0921 23.64 63.0361 23.536 63.0041 23.376L59.3801 8.664C59.3641 8.552 59.3161 8.504 59.2361 8.52C59.1561 8.52 59.1161 8.576 59.1161 8.688L58.6361 21.936C58.6201 22.384 58.6921 22.728 58.8521 22.968C59.0121 23.192 59.2921 23.336 59.6921 23.4L60.0041 23.448C60.2121 23.464 60.3161 23.56 60.3161 23.736C60.3161 23.912 60.1961 24 59.9561 24H56.5241C56.2841 24 56.1641 23.912 56.1641 23.736C56.1641 23.56 56.2681 23.464 56.4761 23.448L56.7881 23.4C57.2041 23.336 57.4841 23.192 57.6281 22.968C57.7881 22.728 57.8761 22.384 57.8921 21.936L58.3721 8.304C58.3881 7.968 58.3401 7.744 58.2281 7.632C58.1161 7.52 57.8761 7.432 57.5081 7.368L56.9561 7.272C56.7481 7.224 56.6441 7.128 56.6441 6.984C56.6441 6.808 56.7641 6.72 57.0041 6.72H59.8841C60.3801 6.72 60.6841 6.96 60.7961 7.44L63.7001 19.416C63.7321 19.528 63.7801 19.584 63.8441 19.584C63.9241 19.584 63.9721 19.528 63.9881 19.416L67.0121 7.32C67.1081 6.92 67.3641 6.72 67.7801 6.72H70.6121C70.8521 6.72 70.9721 6.808 70.9721 6.984C70.9721 7.128 70.8681 7.224 70.6601 7.272L70.1081 7.368C69.7721 7.432 69.5481 7.52 69.4361 7.632C69.3241 7.744 69.2761 7.968 69.2921 8.304L69.7721 22.416C69.7881 22.752 69.8441 22.976 69.9401 23.088C70.0361 23.2 70.2521 23.288 70.5881 23.352L71.1401 23.448C71.3481 23.496 71.4521 23.592 71.4521 23.736C71.4521 23.912 71.3321 24 71.0921 24H66.7481C66.5081 24 66.3881 23.912 66.3881 23.736C66.3881 23.592 66.4921 23.496 66.7001 23.448L67.2521 23.352C67.5881 23.288 67.8121 23.2 67.9241 23.088C68.0361 22.976 68.0841 22.752 68.0681 22.416L67.6601 8.688C67.6601 8.576 67.6201 8.52 67.5401 8.52C67.4761 8.504 67.4281 8.544 67.3961 8.64L63.7481 23.376C63.7161 23.536 63.6601 23.64 63.5801 23.688C63.5161 23.736 63.4521 23.76 63.3881 23.76ZM74.3571 24.216C74.0051 24.216 73.7011 24.104 73.4451 23.88C73.2051 23.64 73.0851 23.328 73.0851 22.944C73.0851 22.576 73.2051 22.28 73.4451 22.056C73.7011 21.816 74.0051 21.696 74.3571 21.696C74.6771 21.696 74.9651 21.816 75.2211 22.056C75.4771 22.28 75.6051 22.576 75.6051 22.944C75.6051 23.328 75.4771 23.64 75.2211 23.88C74.9651 24.104 74.6771 24.216 74.3571 24.216ZM76.8264 24C76.5864 24 76.4664 23.92 76.4664 23.76C76.4664 23.6 76.5784 23.496 76.8024 23.448L77.1624 23.376C77.4824 23.312 77.7224 23.16 77.8824 22.92C78.0424 22.664 78.1784 22.312 78.2904 21.864L82.0104 6.864C82.0424 6.704 82.0904 6.6 82.1544 6.552C82.2344 6.504 82.3064 6.48 82.3704 6.48C82.4504 6.48 82.5224 6.504 82.5864 6.552C82.6664 6.6 82.7224 6.704 82.7544 6.864L86.5464 22.08C86.6584 22.528 86.7864 22.84 86.9304 23.016C87.0744 23.192 87.2984 23.312 87.6024 23.376L87.9624 23.448C88.1864 23.496 88.2984 23.6 88.2984 23.76C88.2984 23.92 88.1784 24 87.9384 24H83.8344C83.6104 24 83.4984 23.912 83.4984 23.736C83.4984 23.56 83.6344 23.464 83.9064 23.448L84.3624 23.4C84.6344 23.368 84.8024 23.28 84.8664 23.136C84.9464 22.992 84.9464 22.744 84.8664 22.392L83.9544 18.672C83.8584 18.256 83.5944 18.048 83.1624 18.048H80.6424C80.2264 18.048 79.9624 18.256 79.8504 18.672L79.0344 21.888C78.7944 22.8 79.0344 23.304 79.7544 23.4L80.1144 23.448C80.3864 23.496 80.5224 23.592 80.5224 23.736C80.5224 23.912 80.4104 24 80.1864 24H76.8264ZM80.5704 17.328H83.2104C83.4664 17.328 83.5704 17.192 83.5224 16.92L81.9864 10.488H81.8664L80.2584 16.92C80.2104 17.192 80.3144 17.328 80.5704 17.328ZM88.4488 24C88.2088 24 88.0888 23.912 88.0888 23.736C88.0888 23.592 88.1928 23.496 88.4008 23.448L88.9528 23.352C89.2888 23.288 89.5048 23.2 89.6008 23.088C89.7128 22.976 89.7688 22.752 89.7688 22.416V8.304C89.7688 7.968 89.7128 7.744 89.6008 7.632C89.5048 7.52 89.2888 7.432 88.9528 7.368L88.4008 7.272C88.1928 7.224 88.0888 7.128 88.0888 6.984C88.0888 6.808 88.2088 6.72 88.4488 6.72H92.7928C93.0328 6.72 93.1528 6.808 93.1528 6.984C93.1528 7.128 93.0488 7.224 92.8408 7.272L92.2888 7.368C91.9528 7.432 91.7288 7.52 91.6168 7.632C91.5208 7.744 91.4728 7.968 91.4728 8.304V22.416C91.4728 22.752 91.5208 22.976 91.6168 23.088C91.7288 23.2 91.9528 23.288 92.2888 23.352L92.8408 23.448C93.0488 23.496 93.1528 23.592 93.1528 23.736C93.1528 23.912 93.0328 24 92.7928 24H88.4488Z" fill="white"/>
</svg>
